<svg xmlns="http://www.w3.org/2000/svg" viewBox="0 0 512 512" width="512" height="512">
<defs>
  <radialGradient id="d" cx="42%" cy="34%" r="76%"><stop offset="0%" stop-color="#83C79A"></stop><stop offset="100%" stop-color="#3E9B63"></stop></radialGradient>
  <linearGradient id="kernel" x1="10%" y1="0%" x2="90%" y2="100%"><stop offset="0%" stop-color="#FBE29A"></stop><stop offset="55%" stop-color="#EFC157"></stop><stop offset="100%" stop-color="#D2941F"></stop></linearGradient>
  <linearGradient id="leaf" x1="0%" y1="0%" x2="100%" y2="100%"><stop offset="0%" stop-color="#CDB24A"></stop><stop offset="100%" stop-color="#A67D1E"></stop></linearGradient>
  <g id="ear">
    <path d="M0 20 L0 -150" stroke="#C08A2E" stroke-width="7" stroke-linecap="round" fill="none"></path>
    <ellipse cx="0" cy="-162" rx="12" ry="26" fill="url(#kernel)"></ellipse>
    <ellipse cx="-13" cy="-134" rx="11" ry="23" fill="url(#kernel)" transform="rotate(-34 -13 -134)"></ellipse>
    <ellipse cx="13" cy="-134" rx="11" ry="23" fill="url(#kernel)" transform="rotate(34 13 -134)"></ellipse>
    <ellipse cx="-15" cy="-104" rx="11" ry="23" fill="url(#kernel)" transform="rotate(-36 -15 -104)"></ellipse>
    <ellipse cx="15" cy="-104" rx="11" ry="23" fill="url(#kernel)" transform="rotate(36 15 -104)"></ellipse>
    <ellipse cx="-16" cy="-74" rx="11" ry="23" fill="url(#kernel)" transform="rotate(-38 -16 -74)"></ellipse>
    <ellipse cx="16" cy="-74" rx="11" ry="23" fill="url(#kernel)" transform="rotate(38 16 -74)"></ellipse>
    <ellipse cx="-16" cy="-44" rx="11" ry="22" fill="url(#kernel)" transform="rotate(-40 -16 -44)"></ellipse>
    <ellipse cx="16" cy="-44" rx="11" ry="22" fill="url(#kernel)" transform="rotate(40 16 -44)"></ellipse>
  </g>
</defs>
<rect width="512" height="512" fill="url(#d)"></rect>
<circle cx="150" cy="120" r="132" fill="#ffffff" opacity=".08"></circle>
<ellipse cx="256" cy="398" rx="104" ry="22" fill="#000" opacity=".12"></ellipse>
<use href="#ear" transform="translate(256 336) rotate(-26)"></use>
<use href="#ear" transform="translate(256 336) rotate(26)"></use>
<use href="#ear" transform="translate(256 336)"></use>
<path d="M256 340 Q214 356 200 396" fill="none" stroke="url(#leaf)" stroke-width="10" stroke-linecap="round"></path>
<path d="M256 340 Q298 356 312 396" fill="none" stroke="url(#leaf)" stroke-width="10" stroke-linecap="round"></path>
<path d="M228 330 Q256 322 284 330 L280 356 Q256 366 232 356 Z" fill="#B9781F"></path>
<path d="M232 336 Q256 330 280 336" fill="none" stroke="#E4B958" stroke-width="3" opacity=".7"></path>
</svg>