<svg xmlns="http://www.w3.org/2000/svg" viewBox="0 0 512 512" width="512" height="512"><defs><radialGradient id="d" cx="42%" cy="34%" r="76%"><stop offset="0" stop-color="#83C79A"></stop><stop offset="1" stop-color="#3E9B63"></stop></radialGradient>
<linearGradient id="green" x1="0" y1="0" x2="0" y2="1"><stop offset="0" stop-color="#68B98A"></stop><stop offset="1" stop-color="#3C8B5E"></stop></linearGradient>
<linearGradient id="wood" x1="0" y1="0" x2="1" y2="0"><stop offset="0" stop-color="#C58A4E"></stop><stop offset="1" stop-color="#8A5A2C"></stop></linearGradient>
<linearGradient id="skin" x1="0" y1="0" x2="0" y2="1"><stop offset="0" stop-color="#F1CBA2"></stop><stop offset="1" stop-color="#D89B6A"></stop></linearGradient>
</defs><rect width="512" height="512" fill="url(#d)"></rect><circle cx="150" cy="120" r="132" fill="#ffffff" opacity=".08"></circle><ellipse cx="256" cy="392" rx="112" ry="24" fill="#000" opacity=".12"></ellipse><path d="M256 166 L290 202 L271 202 L271 246 L241 246 L241 202 L222 202 Z" fill="#2FB37E"></path><path d="M248 178 L248 238" stroke="#fff" stroke-width="6" stroke-linecap="round" opacity=".28"></path><path d="M174 286 L256 252 L338 286 L256 320 Z" fill="#E0B778"></path><path d="M174 286 L256 320 V400 L174 368 Z" fill="#C08E45"></path><path d="M338 286 L256 320 V400 L338 368 Z" fill="#9A6E30"></path><g stroke="#6E4523" stroke-width="3.5" opacity=".45" stroke-linecap="round"><line x1="192" y1="308" x2="192" y2="378"></line><line x1="238" y1="322" x2="238" y2="396"></line><line x1="320" y1="308" x2="320" y2="378"></line><line x1="274" y1="322" x2="274" y2="396"></line></g><path d="M180 296 L256 264 L332 296" fill="none" stroke="#F2D6A6" stroke-width="4" opacity=".6"></path><path d="M178 292 L256 258 L338 290" fill="none" stroke="#6E4523" stroke-width="3" opacity=".4"></path></svg>