<svg xmlns="http://www.w3.org/2000/svg" viewBox="0 0 512 512" width="512" height="512"><defs><radialGradient id="d" cx="42%" cy="34%" r="76%"><stop offset="0" stop-color="#9AD1E8"></stop><stop offset="1" stop-color="#4FA8D8"></stop></radialGradient>
<linearGradient id="green" x1="0" y1="0" x2="0" y2="1"><stop offset="0" stop-color="#68B98A"></stop><stop offset="1" stop-color="#3C8B5E"></stop></linearGradient>
<linearGradient id="red" x1="0" y1="0" x2="0" y2="1"><stop offset="0" stop-color="#F0705A"></stop><stop offset="1" stop-color="#C43D2C"></stop></linearGradient>
<linearGradient id="steel" x1="0" y1="0" x2="0" y2="1"><stop offset="0" stop-color="#CFD7E0"></stop><stop offset="1" stop-color="#8994A2"></stop></linearGradient>
<linearGradient id="navy" x1="0" y1="0" x2="0" y2="1"><stop offset="0" stop-color="#46516A"></stop><stop offset="1" stop-color="#232A3A"></stop></linearGradient>
<linearGradient id="gold" x1="0" y1="0" x2="0" y2="1"><stop offset="0" stop-color="#FFE29C"></stop><stop offset=".5" stop-color="#F3C15A"></stop><stop offset="1" stop-color="#C9871F"></stop></linearGradient>
<linearGradient id="wood" x1="0" y1="0" x2="1" y2="0"><stop offset="0" stop-color="#C58A4E"></stop><stop offset="1" stop-color="#8A5A2C"></stop></linearGradient>
<linearGradient id="stone" x1="0" y1="0" x2="1" y2="0"><stop offset="0" stop-color="#FCF5E6"></stop><stop offset="1" stop-color="#D6C39F"></stop></linearGradient>
<linearGradient id="copper" x1="0" y1="0" x2="0" y2="1"><stop offset="0" stop-color="#E8A06A"></stop><stop offset="1" stop-color="#B5622E"></stop></linearGradient>
<linearGradient id="paper" x1="0" y1="0" x2="0" y2="1"><stop offset="0" stop-color="#FCF6E8"></stop><stop offset="1" stop-color="#E7D6B3"></stop></linearGradient>
<linearGradient id="ice" x1="0" y1="0" x2="0" y2="1"><stop offset="0" stop-color="#EAF7FD"></stop><stop offset="1" stop-color="#9FD4EC"></stop></linearGradient>
<linearGradient id="pot" x1="0" y1="0" x2="0" y2="1"><stop offset="0" stop-color="#5B6470"></stop><stop offset="1" stop-color="#2E3540"></stop></linearGradient>
<linearGradient id="skin" x1="0" y1="0" x2="0" y2="1"><stop offset="0" stop-color="#F1CBA2"></stop><stop offset="1" stop-color="#D89B6A"></stop></linearGradient>
<linearGradient id="card" x1="0" y1="0" x2="0" y2="1"><stop offset="0" stop-color="#E4C08A"></stop><stop offset="1" stop-color="#C4914E"></stop></linearGradient>
<radialGradient id="bubble" cx="40%" cy="35%" r="75%"><stop offset="0" stop-color="#FFFFFF"></stop><stop offset="1" stop-color="#E7EFE9"></stop></radialGradient>
<radialGradient id="globe" cx="38%" cy="32%" r="75%"><stop offset="0" stop-color="#5AA2E0"></stop><stop offset="1" stop-color="#2A6BB0"></stop></radialGradient>
</defs><rect width="512" height="512" fill="url(#d)"></rect><circle cx="150" cy="120" r="132" fill="#ffffff" opacity=".08"></circle><ellipse cx="256" cy="392" rx="112" ry="24" fill="#000" opacity=".12"></ellipse><g stroke="url(#ice)" stroke-width="13" stroke-linecap="round"><line x1="256" y1="288" x2="340.0" y2="288.0"></line><line x1="306.0" y1="288.0" x2="324.4" y2="303.5"></line><line x1="306.0" y1="288.0" x2="324.4" y2="272.5"></line><line x1="256" y1="288" x2="298.0" y2="360.7"></line><line x1="281.0" y1="331.3" x2="276.8" y2="354.9"></line><line x1="281.0" y1="331.3" x2="303.6" y2="339.5"></line><line x1="256" y1="288" x2="214.0" y2="360.7"></line><line x1="231.0" y1="331.3" x2="208.4" y2="339.5"></line><line x1="231.0" y1="331.3" x2="235.2" y2="354.9"></line><line x1="256" y1="288" x2="172.0" y2="288.0"></line><line x1="206.0" y1="288.0" x2="187.6" y2="272.5"></line><line x1="206.0" y1="288.0" x2="187.6" y2="303.5"></line><line x1="256" y1="288" x2="214.0" y2="215.3"></line><line x1="231.0" y1="244.7" x2="235.2" y2="221.1"></line><line x1="231.0" y1="244.7" x2="208.4" y2="236.5"></line><line x1="256" y1="288" x2="298.0" y2="215.3"></line><line x1="281.0" y1="244.7" x2="303.6" y2="236.5"></line><line x1="281.0" y1="244.7" x2="276.8" y2="221.1"></line></g><circle cx="256" cy="288" r="16" fill="#EAF7FD"></circle><circle cx="248" cy="280" r="6" fill="#fff" opacity=".8"></circle></svg>