<svg xmlns="http://www.w3.org/2000/svg" viewBox="0 0 512 512" width="512" height="512">
<defs>
  <radialGradient id="d" cx="42%" cy="34%" r="76%"><stop offset="0%" stop-color="#F3987F"></stop><stop offset="100%" stop-color="#DE5740"></stop></radialGradient>
  <linearGradient id="horn" x1="15%" y1="8%" x2="80%" y2="92%"><stop offset="0%" stop-color="#F28C72"></stop><stop offset="55%" stop-color="#DA4E33"></stop><stop offset="100%" stop-color="#B33A22"></stop></linearGradient>
  <linearGradient id="gold" x1="0%" y1="0%" x2="0%" y2="100%"><stop offset="0%" stop-color="#F8D579"></stop><stop offset="100%" stop-color="#D98A16"></stop></linearGradient>
  <clipPath id="hc"><path d="M200 236 Q196 228 204 224 L318 178 Q336 170 336 190 L336 334 Q336 354 318 346 L204 300 Q196 296 200 288 Z"></path></clipPath>
</defs>
<rect width="512" height="512" fill="url(#d)"></rect>
<circle cx="150" cy="120" r="132" fill="#ffffff" opacity=".08"></circle>
<ellipse cx="256" cy="398" rx="96" ry="22" fill="#000" opacity=".12"></ellipse>
<g transform="rotate(-15 256 262)">
  <path d="M356 206 Q382 262 356 318" fill="none" stroke="#F8D579" stroke-width="7" stroke-linecap="round"></path>
  <path d="M378 186 Q412 262 378 338" fill="none" stroke="#F8D579" stroke-width="7" stroke-linecap="round" opacity=".8"></path>
  <path d="M400 168 Q440 262 400 356" fill="none" stroke="#F8D579" stroke-width="7" stroke-linecap="round" opacity=".6"></path>
  <path d="M214 300 Q206 334 232 342 Q252 346 252 324 L246 306 Z" fill="#2E3646"></path>
  <path d="M218 306 Q214 328 230 334" fill="none" stroke="#556" stroke-width="4" stroke-linecap="round" opacity=".5"></path>
  <ellipse cx="196" cy="262" rx="9" ry="27" fill="#B33A22"></ellipse>
  <path d="M200 236 Q196 228 204 224 L318 178 Q336 170 336 190 L336 334 Q336 354 318 346 L204 300 Q196 296 200 288 Z" fill="url(#horn)"></path>
  <g clip-path="url(#hc)"><rect x="306" y="172" width="18" height="180" fill="url(#gold)"></rect><path d="M208 232 L318 190" fill="none" stroke="#ffffff" stroke-width="9" stroke-linecap="round" opacity=".28"></path></g>
  <ellipse cx="336" cy="262" rx="13" ry="85" fill="#7A2417"></ellipse>
  <ellipse cx="336" cy="262" rx="13" ry="85" fill="none" stroke="#F0A78F" stroke-width="4" opacity=".6"></ellipse>
</g>
</svg>