<svg xmlns="http://www.w3.org/2000/svg" viewBox="0 0 512 512" width="512" height="512">
<defs>
  <radialGradient id="d" cx="42%" cy="34%" r="76%"><stop offset="0%" stop-color="#BC96E4"></stop><stop offset="100%" stop-color="#8A5BC4"></stop></radialGradient>
  <linearGradient id="bill" x1="0%" y1="0%" x2="0%" y2="100%"><stop offset="0%" stop-color="#68B98A"></stop><stop offset="100%" stop-color="#3C8B5E"></stop></linearGradient>
  <linearGradient id="bill2" x1="0%" y1="0%" x2="0%" y2="100%"><stop offset="0%" stop-color="#579E76"></stop><stop offset="100%" stop-color="#317150"></stop></linearGradient>
  <linearGradient id="brass" x1="0%" y1="0%" x2="0%" y2="100%"><stop offset="0%" stop-color="#F7CF6C"></stop><stop offset="52%" stop-color="#E0A431"></stop><stop offset="100%" stop-color="#B67C18"></stop></linearGradient>
  <linearGradient id="steel" x1="0%" y1="0%" x2="0%" y2="100%"><stop offset="0%" stop-color="#CFD7E0"></stop><stop offset="100%" stop-color="#8994A2"></stop></linearGradient>
</defs>
<g transform="rotate(-8 256 300)"><rect x="150" y="252" width="214" height="110" rx="14" fill="url(#bill2)"></rect></g>
<g transform="rotate(5 256 300)">
  <rect x="146" y="256" width="218" height="112" rx="14" fill="url(#bill)"></rect>
  <rect x="160" y="270" width="190" height="84" rx="9" fill="none" stroke="#9BD9B4" stroke-width="2.5" opacity=".6"></rect>
  <ellipse cx="255" cy="312" rx="30" ry="26" fill="#4E9A72" opacity=".7"></ellipse>
  <circle cx="176" cy="286" r="9" fill="#9BD9B4" opacity=".55"></circle><circle cx="334" cy="338" r="9" fill="#9BD9B4" opacity=".55"></circle>
</g>
<path d="M224 250 L224 226 Q224 194 256 194 Q288 194 288 226 L288 250" fill="none" stroke="url(#steel)" stroke-width="17" stroke-linecap="round"></path>
<path d="M232 240 L232 226 Q232 206 256 204" fill="none" stroke="#EBF0F5" stroke-width="5" stroke-linecap="round" opacity=".7"></path>
<rect x="219" y="246" width="74" height="80" rx="16" fill="url(#brass)"></rect>
<rect x="228" y="252" width="30" height="16" rx="8" fill="#ffffff" opacity=".28"></rect>
<circle cx="256" cy="282" r="9" fill="#6E4A11"></circle>
<path d="M252 289 L260 289 L263 306 L249 306 Z" fill="#6E4A11"></path>
</svg>