<svg xmlns="http://www.w3.org/2000/svg" viewBox="0 0 512 512" width="512" height="512">
<defs>
  <radialGradient id="d" cx="42%" cy="34%" r="76%"><stop offset="0%" stop-color="#93BAD9"></stop><stop offset="100%" stop-color="#4E82AE"></stop></radialGradient>
  <linearGradient id="case" x1="20%" y1="0%" x2="80%" y2="100%"><stop offset="0%" stop-color="#46516A"></stop><stop offset="55%" stop-color="#333C51"></stop><stop offset="100%" stop-color="#232A3A"></stop></linearGradient>
  <linearGradient id="gold" x1="0%" y1="0%" x2="0%" y2="100%"><stop offset="0%" stop-color="#FFE29C"></stop><stop offset="45%" stop-color="#F3C15A"></stop><stop offset="100%" stop-color="#C9871F"></stop></linearGradient>
</defs>
<path d="M224 200 L224 180 Q224 152 256 152 Q288 152 288 180 L288 200" fill="none" stroke="#2A3242" stroke-width="16" stroke-linecap="round"></path>
<path d="M224 190 L224 180 Q224 160 256 160" fill="none" stroke="#5A6683" stroke-width="5" stroke-linecap="round" opacity=".7"></path>
<rect x="166" y="198" width="180" height="182" rx="26" fill="url(#case)"></rect>
<path d="M166 224 Q166 198 192 198 L320 198 Q346 198 346 224 L346 238 L166 238 Z" fill="#414C63" opacity=".85"></path>
<rect x="176" y="200" width="120" height="16" rx="8" fill="#ffffff" opacity=".1"></rect>
<line x1="176" y1="238" x2="336" y2="238" stroke="#1E2532" stroke-width="3"></line>
<line x1="176" y1="234" x2="336" y2="234" stroke="#59637E" stroke-width="1.5" opacity=".6"></line>
<rect x="210" y="224" width="34" height="28" rx="7" fill="url(#gold)"></rect>
<rect x="268" y="224" width="34" height="28" rx="7" fill="url(#gold)"></rect>
<rect x="223" y="236" width="8" height="9" rx="2" fill="#8A5A12"></rect>
<rect x="281" y="236" width="8" height="9" rx="2" fill="#8A5A12"></rect>
<circle cx="188" cy="360" r="4" fill="#1E2532"></circle><circle cx="324" cy="360" r="4" fill="#1E2532"></circle>
</svg>